<?xml version="1.0" encoding="iso-8859-1"?>
<!-- Generator: Adobe Illustrator 16.0.0, SVG Export Plug-In . SVG Version: 6.00 Build 0)  -->
<!DOCTYPE svg PUBLIC "-//W3C//DTD SVG 1.1//EN" "http://www.w3.org/Graphics/SVG/1.1/DTD/svg11.dtd">
<svg version="1.1" xmlns="http://www.w3.org/2000/svg" xmlns:xlink="http://www.w3.org/1999/xlink" x="0px" y="0px" width="1920px"
	 height="780px" viewBox="1940 150 1920 780" style="enable-background:new 1940 150 1920 780;" xml:space="preserve">
<g id="Layer_1" style="display:none;">
	<circle style="fill:#FFFFFF;stroke:#FFA500;stroke-width:100;stroke-miterlimit:10;" cx="215.24" cy="743.423" r="148.926"/>
	<circle style="fill:#FFFFFF;stroke:#000000;stroke-width:100;stroke-miterlimit:10;" cx="513.091" cy="316.792" r="148.925"/>
	<circle style="fill:#FFFFFF;stroke:#000000;stroke-width:100;stroke-miterlimit:10;" cx="811.732" cy="743.423" r="148.926"/>
	<line style="fill:none;stroke:#FFA500;stroke-width:100;stroke-miterlimit:10;" x1="364" y1="317" x2="364" y2="740"/>
	<circle style="fill:#FFFFFF;stroke:#000000;stroke-width:100;stroke-miterlimit:10;" cx="512.881" cy="316.792" r="148.926"/>
	<line style="fill:none;stroke:#000000;stroke-width:100;stroke-miterlimit:10;" x1="662" y1="323" x2="662" y2="746"/>
	<line style="fill:none;stroke:#000000;stroke-width:100;stroke-miterlimit:10;" x1="960" y1="323" x2="960" y2="746"/>
	<circle style="fill:#FFFFFF;stroke:#000000;stroke-width:100;stroke-miterlimit:10;" cx="810.732" cy="743.423" r="148.926"/>
	<circle style="fill:#FFFFFF;stroke:#000000;stroke-width:100;stroke-miterlimit:10;" cx="1109.583" cy="316.792" r="148.925"/>
	<line style="fill:none;stroke:#000000;stroke-width:100;stroke-miterlimit:10;" x1="1258" y1="323" x2="1258" y2="746"/>
	<circle style="fill:#FFFFFF;stroke:#000000;stroke-width:100;stroke-miterlimit:10;" cx="1408.864" cy="743.423" r="148.926"/>
	<circle style="fill:#FFFFFF;stroke:#000000;stroke-width:100;stroke-miterlimit:10;" cx="1109.013" cy="316.792" r="148.925"/>
	<line style="fill:none;stroke:#000000;stroke-width:100;stroke-miterlimit:10;" x1="1556" y1="323" x2="1556" y2="746"/>
	<circle style="fill:#FFFFFF;stroke:#000000;stroke-width:100;stroke-miterlimit:10;" cx="1406.864" cy="743.423" r="148.926"/>
	<circle style="fill:#FFFFFF;stroke:#000000;stroke-width:100;stroke-miterlimit:10;" cx="1704.715" cy="316.792" r="148.925"/>
	<path style="display:inline;fill:#FEA22E;" d="M414.02,744.979c0,0.859-0.01,1.729-0.02,2.591c0,0.14,0,0.29-0.01,0.43
		c-1.61,109.271-90.63,197.35-200.19,197.35C103.56,945.35,14.13,856.19,13.59,746h101.23c0.54,54.56,44.65,98.62,98.98,98.62
		c54.32,0,98.431-44.062,98.97-98.62H313V570.9c59.65,34.108,100.07,98.04,101,171.488C414.01,743.25,414.02,744.12,414.02,744.979z
		"/>
	<rect x="313" y="314" style="display:inline;fill:#FEA22E;" width="101" height="434"/>
	<path style="display:inline;" d="M714.21,314.84c0,7.47-0.41,14.85-1.21,22.11c-7.15,65.24-45.6,121.05-100,152.08V312h0.43
		c-1.51-53.72-45.56-96.79-99.699-96.79c-55.08,0-99.73,44.6-99.73,99.63v173.63c-59.91-34.62-100.23-99.41-100.23-173.63
		c0-0.28,0-0.56,0.011-0.84c0.439-110.27,89.91-199.53,200.21-199.53c103.1,0,188.02,78,199.01,178.26
		C713.8,299.99,714.21,307.37,714.21,314.84z"/>
	<path style="display:inline;fill:#FFFFFF;" d="M613.47,314.84c0,3.28-0.16,6.53-0.47,9.73V312h0.43
		C613.46,312.94,613.47,313.89,613.47,314.84z"/>
	<path style="display:inline;fill:#FFFFFF;" d="M414,742.39c0.01,0.86,0.02,1.73,0.02,2.592c0,0.858-0.01,1.729-0.02,2.59V742.39z"
		/>
	<path style="display:inline;fill:#FFFFFF;" d="M612.95,748c0-1.38,0.01-2.76,0.05-4.14v8.278
		C612.96,750.76,612.95,749.38,612.95,748z"/>
	<path style="display:inline;" d="M1013.39,748c0,4.21-0.13,8.39-0.39,12.53c-6.46,104.818-93.45,187.84-199.83,187.84
		c-109.2,0-197.97-87.48-200.17-196.23c-0.04-1.38-0.05-2.76-0.05-4.14s0.01-2.76,0.05-4.14c1.46-72.41,41.3-135.381,100-169.381
		V748h0.2c0,55.03,44.53,99.64,99.47,99.64c54.94,0,99.48-44.608,99.48-99.64H913V574.28c56.6,32.64,95.75,92.188,100,161.188
		C1013.26,739.61,1013.39,743.79,1013.39,748z"/>
	<path style="display:inline;" d="M1112.35,114.47c-104.25,0-189.879,79.73-199.35,181.57c-0.58,6.19-0.87,12.46-0.87,18.8
		c0,6.34,0.29,12.61,0.87,18.8c6.18,66.52,44.86,123.6,100,155.2V315h1v-0.16c0-55.03,44.33-99.63,99-99.63
		c54.66,0,99,44.6,99,99.63V315h1v173.08c55.71-32.47,94.34-91.11,99.07-159.08c0.33-4.68,0.5-9.4,0.5-14.16
		C1312.57,204.18,1222.93,114.47,1112.35,114.47z"/>
	<path style="display:inline;" d="M1612.76,744.979c0,5.931-0.26,11.801-0.76,17.601c-8.91,102.42-94.8,182.77-199.46,182.77
		c-104.99,0-191.1-80.858-199.54-183.738c-0.45-5.49-0.68-11.03-0.68-16.63c0-5.602,0.229-11.142,0.68-16.632
		c5.53-67.368,44.37-125.3,100-157.26v183.39c4.75,50.569,47.05,90.141,98.53,90.141c54.67,0,98.979-44.61,98.979-99.641
		c0-3.369-0.17-6.699-0.489-9.979H1510V569.91c56.47,31.55,96.1,89.68,102,157.47C1612.5,733.18,1612.76,739.05,1612.76,744.979z"/>
	<path style="display:inline;" d="M1910.93,315c0,0.005,0,0.011,0,0.017c0.023-0.001,0.047-0.002,0.07-0.003
		c0-0.004,0-0.009,0-0.013v-0.16c0-110.66-89.67-200.37-200.25-200.37c-106.6,0-193.79,83.38-199.91,188.53
		c-0.22,3.92-0.34,7.87-0.34,11.84c0,74.73,40.89,139.91,101.5,174.351V307.8c0-0.1,0.01-0.21,0.02-0.31
		c3.73-51.6,46.642-92.28,98.852-92.28c54.67,0,99.13,44.6,99.13,99.63V315H1910.93z"/>
	<path style="display:inline;fill:#FFFFFF;" d="M1312.55,744.979c0-3.199,0.15-6.369,0.45-9.5v19
		C1312.7,751.35,1312.55,748.18,1312.55,744.979z"/>
	<path style="display:inline;fill:#FFFFFF;" d="M1510.02,735H1510v-0.21C1510.01,734.86,1510.01,734.93,1510.02,735z"/>
	<path style="display:inline;fill:#FFFFFF;" d="M1611.77,314.84c0-2.37,0.062-4.71,0.23-7.04v13.17
		C1611.86,318.94,1611.77,316.9,1611.77,314.84z"/>
	<path style="display:inline;fill:#FFFFFF;" d="M1612,727.38c0.5,5.8,0.76,11.67,0.76,17.602c0,5.93-0.26,11.8-0.76,17.6V727.38z"/>
	<path style="display:inline;fill:none;" d="M1612.02,489.04h-0.01c0-0.01-0.01-0.01-0.01-0.01v0.01v0.15"/>
	<path style="display:inline;fill:none;" d="M1612.02,489.04h-0.01H1612c0,0,0,0.01,0.01,0.01"/>
	<path style="display:inline;fill:none;" d="M1612,489.04h0.01c0,0,0,0,0,0.01C1612,489.05,1612,489.04,1612,489.04"/>
	<line style="display:inline;fill:none;" x1="1612" y1="322" x2="1612" y2="321"/>
	<rect x="613" y="312" style="display:inline;" width="100" height="433"/>
	<rect x="1213" y="329" style="display:inline;" width="100" height="432"/>
	<rect x="1510" y="303" style="display:inline;" width="102" height="432"/>
	<path style="display:inline;fill:#FFFFFF;" d="M714.21,314.84c0,7.47-0.41,14.85-1.21,22.11v-44.22
		C713.8,299.99,714.21,307.37,714.21,314.84z"/>
	<path style="display:inline;fill:#FFFFFF;" d="M913,296.04v37.6c-0.58-6.19-0.87-12.46-0.87-18.8
		C912.13,308.5,912.42,302.23,913,296.04z"/>
	<rect x="913" y="318" style="display:inline;" width="100" height="433"/>
	<path style="display:inline;fill:#FFFFFF;" d="M1013,735.47c0.26,4.142,0.39,8.32,0.39,12.53s-0.13,8.39-0.39,12.53V735.47z"/>
	<path style="display:inline;fill:#FFFFFF;" d="M1212.32,744.979c0-5.601,0.229-11.141,0.68-16.631v33.262
		C1212.55,756.12,1212.32,750.58,1212.32,744.979z"/>
	<path style="display:inline;fill:#FEA22E;" d="M2351.725,787.84c0,0.859-0.01,1.729-0.02,2.591c0,0.14,0,0.29-0.01,0.43
		c-1.61,109.271-90.63,197.35-200.19,197.35c-110.239,0-199.67-89.159-200.21-199.35h101.23c0.539,54.56,44.65,98.62,98.979,98.62
		c54.32,0,98.431-44.062,98.97-98.62h0.23v-175.1c59.65,34.108,100.07,98.04,101,171.488
		C2351.715,786.11,2351.725,786.98,2351.725,787.84z"/>
	<rect x="2250.705" y="356.86" style="display:inline;fill:#FEA22E;" width="101" height="434"/>
	<path style="display:inline;" d="M2651.915,357.7c0,7.47-0.41,14.85-1.21,22.11c-7.15,65.24-45.6,121.05-100,152.08V354.86h0.43
		c-1.51-53.72-45.56-96.79-99.699-96.79c-55.08,0-99.73,44.6-99.73,99.63v173.63c-59.91-34.62-100.23-99.41-100.23-173.63
		c0-0.28,0-0.56,0.011-0.84c0.439-110.27,89.91-199.53,200.21-199.53c103.1,0,188.02,78,199.01,178.26
		C2651.505,342.851,2651.915,350.23,2651.915,357.7z"/>
	<path style="display:inline;fill:#FFFFFF;" d="M2551.175,357.7c0,3.28-0.16,6.53-0.47,9.73v-12.57h0.43
		C2551.165,355.8,2551.175,356.75,2551.175,357.7z"/>
	<path style="display:inline;fill:#FFFFFF;" d="M2351.705,785.25c0.01,0.86,0.02,1.73,0.02,2.592c0,0.858-0.01,1.729-0.02,2.59
		V785.25z"/>
	<path style="display:inline;fill:#FFFFFF;" d="M2550.655,790.86c0-1.38,0.01-2.76,0.05-4.14v8.278
		C2550.665,793.62,2550.655,792.24,2550.655,790.86z"/>
	<path style="display:inline;" d="M2951.095,790.86c0,4.21-0.13,8.39-0.39,12.53c-6.46,104.818-93.45,187.84-199.83,187.84
		c-109.2,0-197.97-87.48-200.17-196.23c-0.04-1.38-0.05-2.76-0.05-4.14s0.01-2.76,0.05-4.14c1.46-72.41,41.3-135.381,100-169.381
		V790.86h0.2c0,55.03,44.53,99.64,99.47,99.64c54.94,0,99.48-44.608,99.48-99.64h0.85v-173.72c56.6,32.64,95.75,92.188,100,161.188
		C2950.965,782.471,2951.095,786.65,2951.095,790.86z"/>
	<path style="display:inline;" d="M3050.055,157.33c-104.25,0-189.879,79.73-199.35,181.57c-0.58,6.19-0.87,12.46-0.87,18.8
		c0,6.34,0.29,12.61,0.87,18.8c6.18,66.52,44.86,123.6,100,155.2V357.86h1v-0.16c0-55.03,44.33-99.63,99-99.63
		c54.66,0,99,44.6,99,99.63v0.16h1v173.08c55.71-32.47,94.34-91.11,99.07-159.08c0.33-4.68,0.5-9.4,0.5-14.16
		C3250.275,247.041,3160.635,157.33,3050.055,157.33z"/>
	<path style="display:inline;" d="M3550.465,787.84c0,5.931-0.26,11.801-0.76,17.601c-8.91,102.42-94.8,182.77-199.46,182.77
		c-104.99,0-191.1-80.858-199.54-183.738c-0.45-5.49-0.68-11.03-0.68-16.63c0-5.602,0.229-11.142,0.68-16.632
		c5.53-67.368,44.37-125.3,100-157.26v183.39c4.75,50.569,47.05,90.141,98.53,90.141c54.67,0,98.979-44.61,98.979-99.641
		c0-3.369-0.17-6.699-0.489-9.979h-0.02v-165.09c56.47,31.55,96.1,89.68,102,157.47
		C3550.205,776.04,3550.465,781.91,3550.465,787.84z"/>
	<path style="display:inline;" d="M3848.635,357.86c0,0.005,0,0.011,0,0.017c0.023-0.001,0.047-0.002,0.07-0.003
		c0-0.004,0-0.009,0-0.013v-0.16c0-110.66-89.67-200.37-200.25-200.37c-106.6,0-193.79,83.38-199.91,188.53
		c-0.22,3.92-0.34,7.87-0.34,11.84c0,74.73,40.89,139.91,101.5,174.351V350.66c0-0.1,0.01-0.21,0.02-0.31
		c3.73-51.6,46.642-92.28,98.852-92.28c54.67,0,99.13,44.6,99.13,99.63v0.16H3848.635z"/>
	<path style="display:inline;fill:#FFFFFF;" d="M3250.255,787.84c0-3.199,0.15-6.369,0.45-9.5v19
		C3250.405,794.21,3250.255,791.04,3250.255,787.84z"/>
	<path style="display:inline;fill:#FFFFFF;" d="M3447.725,777.86h-0.02v-0.21C3447.715,777.721,3447.715,777.79,3447.725,777.86z"/>
	<path style="display:inline;fill:#FFFFFF;" d="M3549.475,357.7c0-2.37,0.062-4.71,0.23-7.04v13.17
		C3549.565,361.8,3549.475,359.76,3549.475,357.7z"/>
	<path style="display:inline;fill:#FFFFFF;" d="M3549.705,770.24c0.5,5.8,0.76,11.67,0.76,17.602c0,5.93-0.26,11.8-0.76,17.6V770.24
		z"/>
	<path style="display:inline;fill:none;" d="M3549.725,531.9h-0.01c0-0.01-0.01-0.01-0.01-0.01v0.01v0.15"/>
	<path style="display:inline;fill:none;" d="M3549.725,531.9h-0.01h-0.01c0,0,0,0.01,0.01,0.01"/>
	<path style="display:inline;fill:none;" d="M3549.705,531.9h0.01c0,0,0,0,0,0.01C3549.705,531.91,3549.705,531.9,3549.705,531.9"/>
	<line style="display:inline;fill:none;" x1="3549.705" y1="364.86" x2="3549.705" y2="363.86"/>
	<rect x="2550.705" y="354.86" style="display:inline;" width="100" height="433"/>
	<rect x="3150.705" y="371.86" style="display:inline;" width="100" height="432"/>
	<rect x="3447.705" y="345.86" style="display:inline;" width="102" height="432"/>
	<path style="display:inline;fill:#FFFFFF;" d="M2651.915,357.7c0,7.47-0.41,14.85-1.21,22.11v-44.22
		C2651.505,342.851,2651.915,350.23,2651.915,357.7z"/>
	<path style="display:inline;fill:#FFFFFF;" d="M2850.705,338.9v37.6c-0.58-6.19-0.87-12.46-0.87-18.8
		C2849.835,351.36,2850.125,345.09,2850.705,338.9z"/>
	<rect x="2850.705" y="360.86" style="display:inline;" width="100" height="433"/>
	<path style="display:inline;fill:#FFFFFF;" d="M2950.705,778.33c0.26,4.142,0.39,8.32,0.39,12.53s-0.13,8.39-0.39,12.53V778.33z"/>
	<path style="display:inline;fill:#FFFFFF;" d="M3150.025,787.84c0-5.601,0.229-11.141,0.68-16.631v33.262
		C3150.255,798.98,3150.025,793.44,3150.025,787.84z"/>
</g>
<g id="Layer_2">
	<rect x="2244.762" y="351.689" style="fill:#F6A033;" width="93.613" height="379.141"/>
	<rect x="2549.22" y="351.689" width="93.615" height="379.141"/>
	<rect x="3158.101" y="351.826" width="93.615" height="379.141"/>
	<rect x="2853.674" y="352.022" width="93.614" height="379.14"/>
	<rect x="3462.395" y="352.022" width="93.615" height="379.14"/>
	<path style="fill:#F6A033;" d="M2244.762,562.088v169.074h-0.012c-0.18,57.977-47.396,105.088-105.414,105.088
		c-58.018,0-105.234-47.111-105.414-105.088h-93.615c0.18,109.596,89.392,198.703,199.029,198.703
		c109.748,0,199.035-89.287,199.035-199.035C2338.371,659.775,2300.936,597.309,2244.762,562.088z"/>
	<path d="M2642.835,351.689c0-109.748-89.286-199.034-199.034-199.034s-199.034,89.286-199.034,199.034
		c0,71.053,37.433,133.518,93.604,168.741V351.689h0.01c0-58.128,47.291-105.419,105.42-105.419
		c58.127,0,105.419,47.292,105.419,105.419v168.748C2605.398,485.215,2642.835,422.747,2642.835,351.689z"/>
	<path d="M2853.679,562.088V688.49v42.672h-0.009c-0.182,57.977-47.398,105.088-105.416,105.088s-105.234-47.111-105.415-105.088
		h-0.01v-42.68V562.088c-56.175,35.221-93.609,97.688-93.609,168.742c0,109.748,89.286,199.035,199.034,199.035
		s199.034-89.287,199.034-199.035C2947.288,659.775,2909.854,597.309,2853.679,562.088z"/>
	<path d="M3251.716,351.826c0-109.748-89.286-199.035-199.034-199.035s-199.033,89.287-199.033,199.035
		c0,71.055,37.435,133.52,93.608,168.743v-1.778V400.549v-57.012h0.012l0,0c4.24-54.269,50.074-97.13,105.413-97.13
		s101.185,42.861,105.425,97.13l0,0v57.012v118.247v1.772C3214.28,485.346,3251.716,422.881,3251.716,351.826z"/>
	<path d="M3462.564,562.223v125.76v1.91v41.074h-0.005c0,58.129-47.292,105.418-105.419,105.418
		c-58.128,0-105.42-47.289-105.42-105.418h-0.005v-41.074v-1.916V562.223c-56.176,35.223-93.61,97.689-93.61,168.744
		c0,109.748,89.286,199.033,199.035,199.033c109.747,0,199.034-89.285,199.034-199.033
		C3556.175,659.912,3518.739,597.445,3462.564,562.223z"/>
	<path d="M3555.98,413.063V346.05h0.016l0,0c3.009-55.453,49.218-99.644,105.408-99.644c56.189,0,102.249,44.191,105.26,99.644
		h93.685c-3.068-107.087-91.128-193.259-198.944-193.259c-109.748,0-199.035,89.287-199.035,199.035
		c0,71.055,37.436,133.52,93.611,168.743V414.77V413.063z"/>
</g>
<g id="Layer_3">
	<rect x="1940" y="-150.244" style="fill:#F6A033;" width="50" height="50"/>
	<rect x="1940" y="-89.879" width="50" height="50"/>
</g>
</svg>
